<?xml version="1.0" standalone="no"?>
<!DOCTYPE svg PUBLIC "-//W3C//DTD SVG 20010904//EN"
 "http://www.w3.org/TR/2001/REC-SVG-20010904/DTD/svg10.dtd">
<svg version="1.0" xmlns="http://www.w3.org/2000/svg"
 width="78.000000pt" height="78.000000pt" viewBox="0 0 78.000000 78.000000"
 preserveAspectRatio="xMidYMid meet">
<metadata>
Created by potrace 1.14, written by Peter Selinger 2001-2017
</metadata>
<g transform="translate(0.000000,78.000000) scale(0.100000,-0.100000)"
fill="#000000" stroke="none">
<path d="M330 720 c-30 -33 -55 -64 -54 -69 1 -6 2 -16 3 -23 0 -7 27 13 59
45 l58 57 48 -50 c50 -52 60 -58 72 -39 6 10 -113 141 -126 138 -3 -1 -30 -27
-60 -59z"/>
<path d="M187 673 c7 -52 35 -112 69 -149 16 -17 72 -61 124 -99 99 -71 140
-110 166 -159 15 -27 16 -28 29 -8 15 20 14 38 -3 83 -13 33 -83 95 -194 171
-96 65 -164 133 -174 172 -10 40 -22 31 -17 -11z"/>
<path d="M347 662 c-26 -26 -47 -52 -47 -58 0 -6 9 -19 20 -29 19 -18 20 -17
20 7 0 25 37 68 57 68 28 0 53 -53 53 -110 0 -44 4 -61 20 -75 23 -21 22 -24
22 74 l-1 74 -48 49 -48 48 -48 -48z"/>
<path d="M545 629 c-26 -30 -28 -37 -26 -118 1 -81 2 -87 31 -115 l30 -31 1
25 c4 111 3 270 -2 270 -3 0 -18 -14 -34 -31z"/>
<path d="M205 405 c1 -138 2 -146 25 -170 13 -14 27 -25 32 -25 4 0 8 61 8
136 0 132 -1 136 -27 170 -16 18 -30 34 -33 34 -3 0 -5 -65 -5 -145z"/>
<path d="M656 460 c20 -124 -11 -185 -143 -284 -29 -22 -67 -60 -85 -85 l-32
-46 40 35 c21 20 68 53 104 74 81 48 96 61 131 110 37 50 38 109 3 186 l-25
55 7 -45z"/>
<path d="M112 441 c-29 -67 -33 -95 -19 -136 17 -49 68 -99 145 -142 37 -21
86 -57 110 -80 24 -24 39 -35 33 -26 -23 42 -62 86 -107 121 -132 101 -164
166 -139 280 10 45 2 40 -23 -17z"/>
<path d="M297 453 c-3 -7 -2 -245 2 -265 0 -4 9 -12 20 -17 17 -10 18 -3 19
129 2 128 0 140 -18 150 -10 5 -21 7 -23 3z"/>
<path d="M63 401 c-67 -139 -32 -205 151 -283 54 -23 110 -51 122 -61 13 -10
24 -17 24 -14 0 13 -45 51 -115 96 -158 103 -199 170 -164 270 17 49 7 44 -18
-8z"/>
<path d="M714 366 c1 -80 -38 -136 -141 -206 -91 -61 -119 -84 -148 -120 -15
-18 -8 -15 25 11 25 19 85 53 134 74 49 22 102 49 117 62 36 30 61 96 54 140
-5 31 -31 93 -39 93 -1 0 -3 -24 -2 -54z"/>
<path d="M450 257 c0 -95 1 -97 20 -87 11 6 20 21 21 33 0 12 2 40 3 61 2 29
-4 46 -21 65 l-22 26 -1 -98z"/>
<path d="M521 240 c-1 -23 2 -31 9 -24 7 7 7 19 1 35 -9 23 -10 22 -10 -11z"/>
</g>
</svg>
